<svg viewBox="0 0 330 200" xmlns="http://www.w3.org/2000/svg"><g><g><g><g><g><line x1="51.36000061035156" y1="178.08499908447266" x2="46.36000061035156" y2="178.08499908447266" style="visibility: inherit;" fill="rgb(0, 0, 0)" stroke="rgb(204, 204, 204)" stroke-width="1px"></line><line x1="51.36000061035156" y1="155.82437419891357" x2="46.36000061035156" y2="155.82437419891357" style="visibility: inherit;" fill="rgb(0, 0, 0)" stroke="rgb(204, 204, 204)" stroke-width="1px"></line><line x1="51.36000061035156" y1="133.56374931335446" x2="46.36000061035156" y2="133.56374931335446" style="visibility: inherit;" fill="rgb(0, 0, 0)" stroke="rgb(204, 204, 204)" stroke-width="1px"></line><line x1="51.36000061035156" y1="111.30312442779537" x2="46.36000061035156" y2="111.30312442779537" style="visibility: inherit;" fill="rgb(0, 0, 0)" stroke="rgb(204, 204, 204)" stroke-width="1px"></line><line x1="51.36000061035156" y1="89.04249954223638" x2="46.36000061035156" y2="89.04249954223638" style="visibility: inherit;" fill="rgb(0, 0, 0)" stroke="rgb(204, 204, 204)" stroke-width="1px"></line><line x1="51.36000061035156" y1="66.78187465667729" x2="46.36000061035156" y2="66.78187465667729" style="visibility: inherit;" fill="rgb(0, 0, 0)" stroke="rgb(204, 204, 204)" stroke-width="1px"></line><line x1="51.36000061035156" y1="44.52124977111819" x2="46.36000061035156" y2="44.52124977111819" style="visibility: inherit;" fill="rgb(0, 0, 0)" stroke="rgb(204, 204, 204)" stroke-width="1px"></line><line x1="51.36000061035156" y1="22.26062488555911" x2="46.36000061035156" y2="22.26062488555911" style="visibility: inherit;" fill="rgb(0, 0, 0)" stroke="rgb(204, 204, 204)" stroke-width="1px"></line><line x1="51.36000061035156" y1="0" x2="46.36000061035156" y2="0" style="visibility: inherit;" fill="rgb(0, 0, 0)" stroke="rgb(204, 204, 204)" stroke-width="1px"></line></g><g transform="translate(41.36000061035156, 0)"><text style="text-anchor: end; visibility: hidden; font-family: &quot;Helvetica Neue&quot;, sans-serif; font-size: 12px; font-weight: 200;" x="0" y="178.08499908447266" dx="0em" dy="0.3em" fill="rgb(50, 49, 63)" stroke="none" stroke-width="1px">0.74</text><text style="text-anchor: end; visibility: inherit; font-family: &quot;Helvetica Neue&quot;, sans-serif; font-size: 12px; font-weight: 200;" x="0" y="155.82437419891357" dx="0em" dy="0.3em" fill="rgb(50, 49, 63)" stroke="none" stroke-width="1px">0.76</text><text style="text-anchor: end; visibility: hidden; font-family: &quot;Helvetica Neue&quot;, sans-serif; font-size: 12px; font-weight: 200;" x="0" y="133.56374931335446" dx="0em" dy="0.3em" fill="rgb(50, 49, 63)" stroke="none" stroke-width="1px">0.78</text><text style="text-anchor: end; visibility: inherit; font-family: &quot;Helvetica Neue&quot;, sans-serif; font-size: 12px; font-weight: 200;" x="0" y="111.30312442779537" dx="0em" dy="0.3em" fill="rgb(50, 49, 63)" stroke="none" stroke-width="1px">0.8</text><text style="text-anchor: end; visibility: hidden; font-family: &quot;Helvetica Neue&quot;, sans-serif; font-size: 12px; font-weight: 200;" x="0" y="89.04249954223638" dx="0em" dy="0.3em" fill="rgb(50, 49, 63)" stroke="none" stroke-width="1px">0.82</text><text style="text-anchor: end; visibility: inherit; font-family: &quot;Helvetica Neue&quot;, sans-serif; font-size: 12px; font-weight: 200;" x="0" y="66.78187465667729" dx="0em" dy="0.3em" fill="rgb(50, 49, 63)" stroke="none" stroke-width="1px">0.84</text><text style="text-anchor: end; visibility: hidden; font-family: &quot;Helvetica Neue&quot;, sans-serif; font-size: 12px; font-weight: 200;" x="0" y="44.52124977111819" dx="0em" dy="0.3em" fill="rgb(50, 49, 63)" stroke="none" stroke-width="1px">0.86</text><text style="text-anchor: end; visibility: inherit; font-family: &quot;Helvetica Neue&quot;, sans-serif; font-size: 12px; font-weight: 200;" x="0" y="22.26062488555911" dx="0em" dy="0.3em" fill="rgb(50, 49, 63)" stroke="none" stroke-width="1px">0.88</text><text style="text-anchor: end; visibility: hidden; font-family: &quot;Helvetica Neue&quot;, sans-serif; font-size: 12px; font-weight: 200;" x="0" y="0" dx="0em" dy="0.3em" fill="rgb(50, 49, 63)" stroke="none" stroke-width="1px">0.9</text></g><line x1="51.36000061035156" y1="0" x2="51.36000061035156" y2="178.08499908447266" fill="rgb(0, 0, 0)" stroke="rgb(204, 204, 204)" stroke-width="1px"></line></g></g><g transform="translate(51, 0)" clip-path="url(#clip_0)"><clipPath id="clip_0"><rect width="278" height="178"></rect></clipPath><g><g><g><line x1="0" y1="0" x2="0" y2="178.08499908447266" fill="rgb(0, 0, 0)" stroke="rgb(60, 60, 60)" stroke-width="1px" opacity="0.25"></line><line x1="23.219999949137367" y1="0" x2="23.219999949137367" y2="178.08499908447266" fill="rgb(0, 0, 0)" stroke="rgb(60, 60, 60)" stroke-width="1px" opacity="0.25"></line><line x1="46.439999898274735" y1="0" x2="46.439999898274735" y2="178.08499908447266" fill="rgb(0, 0, 0)" stroke="rgb(60, 60, 60)" stroke-width="1px" opacity="0.25"></line><line x1="69.65999984741211" y1="0" x2="69.65999984741211" y2="178.08499908447266" fill="rgb(0, 0, 0)" stroke="rgb(60, 60, 60)" stroke-width="1px" opacity="0.25"></line><line x1="92.87999979654947" y1="0" x2="92.87999979654947" y2="178.08499908447266" fill="rgb(0, 0, 0)" stroke="rgb(60, 60, 60)" stroke-width="1px" opacity="0.25"></line><line x1="116.09999974568686" y1="0" x2="116.09999974568686" y2="178.08499908447266" fill="rgb(0, 0, 0)" stroke="rgb(60, 60, 60)" stroke-width="1px" opacity="0.25"></line><line x1="139.31999969482422" y1="0" x2="139.31999969482422" y2="178.08499908447266" fill="rgb(0, 0, 0)" stroke="rgb(60, 60, 60)" stroke-width="1px" opacity="0.25"></line><line x1="162.5399996439616" y1="0" x2="162.5399996439616" y2="178.08499908447266" fill="rgb(0, 0, 0)" stroke="rgb(60, 60, 60)" stroke-width="1px" opacity="0.25"></line><line x1="185.75999959309894" y1="0" x2="185.75999959309894" y2="178.08499908447266" fill="rgb(0, 0, 0)" stroke="rgb(60, 60, 60)" stroke-width="1px" opacity="0.25"></line><line x1="208.97999954223633" y1="0" x2="208.97999954223633" y2="178.08499908447266" fill="rgb(0, 0, 0)" stroke="rgb(60, 60, 60)" stroke-width="1px" opacity="0.25"></line><line x1="232.19999949137372" y1="0" x2="232.19999949137372" y2="178.08499908447266" fill="rgb(0, 0, 0)" stroke="rgb(60, 60, 60)" stroke-width="1px" opacity="0.25"></line><line x1="255.41999944051105" y1="0" x2="255.41999944051105" y2="178.08499908447266" fill="rgb(0, 0, 0)" stroke="rgb(60, 60, 60)" stroke-width="1px" opacity="0.25"></line><line x1="278.63999938964844" y1="0" x2="278.63999938964844" y2="178.08499908447266" fill="rgb(0, 0, 0)" stroke="rgb(60, 60, 60)" stroke-width="1px" opacity="0.25"></line></g><g><line x1="0" y1="178.08499908447266" x2="278.63999938964844" y2="178.08499908447266" fill="rgb(0, 0, 0)" stroke="rgb(60, 60, 60)" stroke-width="1px" opacity="0.25"></line><line x1="0" y1="155.82437419891357" x2="278.63999938964844" y2="155.82437419891357" fill="rgb(0, 0, 0)" stroke="rgb(60, 60, 60)" stroke-width="1px" opacity="0.25"></line><line x1="0" y1="133.56374931335446" x2="278.63999938964844" y2="133.56374931335446" fill="rgb(0, 0, 0)" stroke="rgb(60, 60, 60)" stroke-width="1px" opacity="0.25"></line><line x1="0" y1="111.30312442779537" x2="278.63999938964844" y2="111.30312442779537" fill="rgb(0, 0, 0)" stroke="rgb(60, 60, 60)" stroke-width="1px" opacity="0.25"></line><line x1="0" y1="89.04249954223638" x2="278.63999938964844" y2="89.04249954223638" fill="rgb(0, 0, 0)" stroke="rgb(60, 60, 60)" stroke-width="1px" opacity="0.25"></line><line x1="0" y1="66.78187465667729" x2="278.63999938964844" y2="66.78187465667729" fill="rgb(0, 0, 0)" stroke="rgb(60, 60, 60)" stroke-width="1px" opacity="0.25"></line><line x1="0" y1="44.52124977111819" x2="278.63999938964844" y2="44.52124977111819" fill="rgb(0, 0, 0)" stroke="rgb(60, 60, 60)" stroke-width="1px" opacity="0.25"></line><line x1="0" y1="22.26062488555911" x2="278.63999938964844" y2="22.26062488555911" fill="rgb(0, 0, 0)" stroke="rgb(60, 60, 60)" stroke-width="1px" opacity="0.25"></line><line x1="0" y1="0" x2="278.63999938964844" y2="0" fill="rgb(0, 0, 0)" stroke="rgb(60, 60, 60)" stroke-width="1px" opacity="0.25"></line></g></g></g><g><g><line x1="0" y1="1001.7281198501586" x2="278.63999938964844" y2="1001.7281198501586" fill="rgb(0, 0, 0)" stroke="rgb(153, 153, 153)" stroke-width="1.5px"></line></g></g><g><g><line x1="23.219999949137367" y1="0" x2="23.219999949137367" y2="178.08499908447266" fill="rgb(0, 0, 0)" stroke="rgb(153, 153, 153)" stroke-width="1.5px"></line></g></g><g><g><g><g><g><path style="fill: none;" stroke="rgb(0, 153, 136)" stroke-width="2px" d="M29.330342935752867,155.40609956323067L35.03665792325338,111.77485963361885L40.8045059106191,95.94411191388258L52.97294688396454,75.28951671606305L65.22265785713196,68.55315511819869L71.12518184420267,59.2005406553334L76.95688483142852,54.72124790794646L82.71196181882223,52.585784530144934L82.71312281881967,51.12364144461894L88.4356918062846,53.608812702924126L94.2116667936325,49.98936264800648L99.94584578107198,50.40635191880271L105.70208376846314,49.98099615628854L111.46412675584158,45.778704802861625L117.23197474320729,46.886565876014004L122.9545437306722,47.03739800265441L128.67595171813966,41.695571290300876L134.43335070552826,37.776532981825255L140.21396969286602,33.772768617414755L145.9423436803182,31.30384421113243L151.6997426677068,28.352725078352364L157.44204865512847,27.064857628762468L163.20060864251457,29.281136508947696L168.94988062992095,30.086975437617355L174.69683061733247,31.176232072304373L180.46583960469562,31.85693119510654L186.18028159217835,32.035992709527335L191.91562157961528,30.859953095286556L197.36999956766766,29.36626814534489" fill="none"></path></g><g><path style="fill: none;" stroke="rgb(51, 187, 238)" stroke-width="2px" d="M29.156192936134335,202.35647939385842L34.84973692366282,169.01481613435593L46.5781588979721,141.09471230932434L52.18230588569641,132.96469514662408L57.95711987304687,120.22523597656652L69.75868484719594,105.60264390281885L75.52304983456929,112.07021146202511L81.27464382197063,101.30047910165723L86.93219680957793,92.9929487141264L92.69772279694875,85.50099574035822L98.48414678427379,85.67463951194388L104.17652977180481,86.36472678095329L109.92928475920358,81.49977255310223L115.69945474656423,81.68498501481236L121.47775173390707,77.9392946241435L127.1805837214152,76.81269619326322L132.95539770876567,71.28111724076906L138.72324569613139,65.1361873777236L150.55731867020924,63.939032270180576L156.3518696575165,62.0213613311188L162.0477356450399,60.246619456729064L167.80281263243356,59.989057285477614L179.66358860645292,61.33937907894445L185.40125059388478,60.954955570218985L191.15168358128867,61.02950246212056L196.916048568662,61.103235160020816L202.57592355626423,60.57995955027887L208.35073754361468,61.21003937542318L214.08956053104401,62.10887059548354L219.77265551859537,60.493943209327554L225.53818150596618,60.50061011603299L231.3083514933268,60.85298451509493L236.97751448090872,59.728947995878485L242.76045546824136,58.89679177456313L248.5550064555486,58.780715021633725L254.27060944302877,59.72827502240095L255.41999944051105,58.93454783113819" fill="none"></path></g><g><path style="fill: none;" stroke="rgb(255, 112, 67)" stroke-width="2px" d="M29.319893935775756,147.1119110505407L34.9472609234492,117.77874566773342L40.63151691099803,100.35612399822476L46.28674789861043,91.55271583754035L51.925724886258436,82.43081497303221L57.56586287390391,68.33167224478855L63.22805986150105,70.93721416426406L68.88329084911346,64.14120167902215L74.54084383672078,62.29325518119421L80.17401582438151,60.80150586316287L85.83969581197103,53.289066695244244L97.51122878640493,48.171185328037325L103.16181577402752,45.42244071690021L108.81588576164246,49.53933035536167L114.44557474931081,46.08623301374675L120.07642473697662,44.08995017560278L125.71888472461701,47.03111422857404L131.34044671230316,42.128922363563845L136.99916069990795,40.037577709372414L139.31999969482422,37.52618609066673" fill="none"></path></g><g><path style="fill: none;" stroke="rgb(0, 153, 136)" stroke-width="2px" d="M29.377943935648602,140.83424886147145L41.52548690903981,117.33729882528155L47.32700389633179,104.2506616699524L53.120393883641555,90.416765137166L58.95674087085724,93.02394510031922L64.79424885807038,81.5347358591251L70.59808784535727,75.20366426223124L82.70383481884002,67.59487024311011L88.49954680614472,60.6671884222813L94.32196179339091,60.001358333647175L100.07007278079986,56.02010238735606L105.71369376843771,50.245383867141314L111.64059875545502,50.19437562676535L117.32253274300894,50.56260143928081L122.92667973073323,50.233863043595406L128.55288571840921,45.43238489375386L134.28590370585124,43.242835039117836L139.31999969482422,42.105219135866065" fill="none"></path></g><g><path style="fill: none;" stroke="rgb(51, 187, 238)" stroke-width="2px" d="M26.454545942052203,164.90969967217026L29.390714935620625,144.71935093076004L32.344298929150895,138.0251935361015L35.31413692264557,115.68312256327172L38.27004291617076,94.98649486236148L41.23059290968577,83.89701934114987L44.18069390322367,74.39742942859176L47.12847289676666,68.62989035207514L50.07857389030456,66.07630610504994L53.022869883855186,58.164832835140615L55.979936877377824,56.68375052374677L57.81663887335459,54.05971129862927" fill="none"></path></g></g></g></g><g opacity="0.2"><g><g><g><path style="fill: none;" stroke="rgb(0, 153, 136)" stroke-width="2px" d="M29.330342935752867,155.40609956323067L35.03665792325338,85.59611567585193L40.8045059106191,80.74659410293577L52.97294688396454,50.9997127634273L65.22265785713196,59.75816141602708L71.12518184420267,46.262507911984045L76.95688483142852,48.31578761049914L82.71196181882223,49.47225842486151L82.71312281881967,48.96726440014109L88.4356918062846,57.299002389708576L94.2116667936325,44.59301571123663L99.94584578107198,51.02956658779989L105.70208376846314,49.344351372882926L111.46412675584158,39.483500498951145L117.23197474320729,48.54705523663884L122.9545437306722,47.2635398141131L128.67595171813966,33.68509170381006L134.43335070552826,31.89897056251371L140.21396969286602,27.76773200400217L145.9423436803182,27.60068327117952L151.6997426677068,23.926208225568672L157.44204865512847,25.13309883220475L163.20060864251457,32.60551107266511L168.94988062992095,31.295724284691488L174.69683061733247,32.81010928236529L180.46583960469562,32.87797697643899L186.18028159217835,32.30458452298936L191.91562157961528,29.09589547942292L197.36999956766766,27.125742096327514" fill="none"></path></g><g><path style="fill: none;" stroke="rgb(51, 187, 238)" stroke-width="2px" d="M29.156192936134335,202.35647939385842L34.84973692366282,149.00981817865443L46.5781588979721,114.29141263729377L52.18230588569641,123.40379496328865L57.95711987304687,103.59259808413924L69.75868484719594,85.37433493167953L75.52304983456929,121.31893655277054L81.27464382197063,85.5981059308101L86.93219680957793,80.74095504722095L92.69772279694875,74.37631871647967L98.48414678427379,85.93353023309419L104.17652977180481,87.39610226002355L109.92928475920358,74.2182261309688L115.69945474656423,81.96244085688363L121.47775173390707,72.32516195658663L127.1805837214152,75.12359311144168L132.95539770876567,62.986089590855855L138.72324569613139,55.92035278018217L150.55731867020924,62.143481983397365L156.3518696575165,59.14503020524593L162.0477356450399,57.584603976206395L167.80281263243356,59.60272250379377L179.66358860645292,63.36483510939617L185.40125059388478,60.37832486099377L191.15168358128867,61.14132227012534L196.916048568662,61.21383389243478L202.57592355626423,59.79504747458522L208.35073754361468,62.155158145818646L214.08956053104401,63.457116597623454L219.77265551859537,58.07155302263938L225.53818150596618,60.510610473880334L231.3083514933268,61.38154604357682L236.97751448090872,58.04289335124169L242.76045546824136,57.648557502195686L248.5550064555486,58.60659989722821L254.27060944302877,61.14961499911773L255.41999944051105,57.74395705652411" fill="none"></path></g><g><path style="fill: none;" stroke="rgb(255, 112, 67)" stroke-width="2px" d="M29.319893935775756,147.1119110505407L34.9472609234492,100.17884643804906L40.63151691099803,83.63040719549645L46.28674789861043,81.19990784057563L51.925724886258436,70.5212612043306L57.56586287390391,48.82748216024541L63.22805986150105,74.66318079778434L68.88329084911346,54.232550233819566L74.54084383672078,59.567893042025744L80.17401582438151,58.58643198031872L85.83969581197103,42.088545213703725L97.51122878640493,40.52221456162161L103.16181577402752,41.30829892826799L108.81588576164246,55.706599397674395L114.44557474931081,40.91064598762503L120.07642473697662,41.09693385171002L125.71888472461701,51.44161570597363L131.34044671230316,34.7768792320318L136.99916069990795,36.90087932339398L139.31999969482422,33.75932821374991" fill="none"></path></g><g><path style="fill: none;" stroke="rgb(0, 153, 136)" stroke-width="2px" d="M29.377943935648602,140.83424886147156L41.52548690903981,103.23912880356772L47.32700389633179,91.68749000083609L53.120393883641555,74.14810281460917L58.95674087085724,96.42787926021244L64.79424885807038,65.64102336322664L70.59808784535727,66.15013058152728L82.70383481884002,56.50117551880898L88.49954680614472,50.450203369475744L94.32196179339091,59.01267825052743L100.07007278079986,50.08432816633163L105.71369376843771,41.61473184999468L111.64059875545502,50.11802981695668L117.32253274300894,51.11421876535418L122.92667973073323,49.741141869710674L128.55288571840921,38.23355404338659L134.28590370585124,39.95943680128224L139.31999969482422,40.39908412154264" fill="none"></path></g><g><path style="fill: none;" stroke="rgb(51, 187, 238)" stroke-width="2px" d="M26.454545942052203,164.9096996721704L29.390714935620625,132.60514168591385L32.344298929150895,131.59880243722966L35.31413692264557,89.40884709922388L38.27004291617076,67.96497773605326L41.23059290968577,68.55628248412644L44.18069390322367,60.81286386019487L47.12847289676666,60.22076301013841L50.07857389030456,62.31026534889226L53.022869883855186,46.41721706406602L55.979936877377824,54.475560364212484L57.81663887335459,50.13793236653841" fill="none"></path></g></g></g></g></g></g><g transform="translate(51, 178)" clip-path="url(#clip_1)"><clipPath id="clip_1"><rect width="278" height="21"></rect></clipPath><g><g><line x1="0" y1="0" x2="0" y2="5" style="visibility: inherit;" fill="rgb(0, 0, 0)" stroke="rgb(204, 204, 204)" stroke-width="1px"></line><line x1="23.219999949137367" y1="0" x2="23.219999949137367" y2="5" style="visibility: inherit;" fill="rgb(0, 0, 0)" stroke="rgb(204, 204, 204)" stroke-width="1px"></line><line x1="46.439999898274735" y1="0" x2="46.439999898274735" y2="5" style="visibility: inherit;" fill="rgb(0, 0, 0)" stroke="rgb(204, 204, 204)" stroke-width="1px"></line><line x1="69.65999984741211" y1="0" x2="69.65999984741211" y2="5" style="visibility: inherit;" fill="rgb(0, 0, 0)" stroke="rgb(204, 204, 204)" stroke-width="1px"></line><line x1="92.87999979654947" y1="0" x2="92.87999979654947" y2="5" style="visibility: inherit;" fill="rgb(0, 0, 0)" stroke="rgb(204, 204, 204)" stroke-width="1px"></line><line x1="116.09999974568686" y1="0" x2="116.09999974568686" y2="5" style="visibility: inherit;" fill="rgb(0, 0, 0)" stroke="rgb(204, 204, 204)" stroke-width="1px"></line><line x1="139.31999969482422" y1="0" x2="139.31999969482422" y2="5" style="visibility: inherit;" fill="rgb(0, 0, 0)" stroke="rgb(204, 204, 204)" stroke-width="1px"></line><line x1="162.5399996439616" y1="0" x2="162.5399996439616" y2="5" style="visibility: inherit;" fill="rgb(0, 0, 0)" stroke="rgb(204, 204, 204)" stroke-width="1px"></line><line x1="185.75999959309894" y1="0" x2="185.75999959309894" y2="5" style="visibility: inherit;" fill="rgb(0, 0, 0)" stroke="rgb(204, 204, 204)" stroke-width="1px"></line><line x1="208.97999954223633" y1="0" x2="208.97999954223633" y2="5" style="visibility: inherit;" fill="rgb(0, 0, 0)" stroke="rgb(204, 204, 204)" stroke-width="1px"></line><line x1="232.19999949137372" y1="0" x2="232.19999949137372" y2="5" style="visibility: inherit;" fill="rgb(0, 0, 0)" stroke="rgb(204, 204, 204)" stroke-width="1px"></line><line x1="255.41999944051105" y1="0" x2="255.41999944051105" y2="5" style="visibility: inherit;" fill="rgb(0, 0, 0)" stroke="rgb(204, 204, 204)" stroke-width="1px"></line><line x1="278.63999938964844" y1="0" x2="278.63999938964844" y2="5" style="visibility: inherit;" fill="rgb(0, 0, 0)" stroke="rgb(204, 204, 204)" stroke-width="1px"></line></g><g transform="translate(0, 8)"><text style="text-anchor: middle; visibility: hidden; font-family: &quot;Helvetica Neue&quot;, sans-serif; font-size: 12px; font-weight: 200;" x="0" y="0" dx="0em" dy="0.95em" fill="rgb(50, 49, 63)" stroke="none" stroke-width="1px">-20k</text><text style="text-anchor: middle; visibility: inherit; font-family: &quot;Helvetica Neue&quot;, sans-serif; font-size: 12px; font-weight: 200;" x="23.219999949137367" y="0" dx="0em" dy="0.95em" fill="rgb(50, 49, 63)" stroke="none" stroke-width="1px">0</text><text style="text-anchor: middle; visibility: hidden; font-family: &quot;Helvetica Neue&quot;, sans-serif; font-size: 12px; font-weight: 200;" x="46.439999898274735" y="0" dx="0em" dy="0.95em" fill="rgb(50, 49, 63)" stroke="none" stroke-width="1px">20k</text><text style="text-anchor: middle; visibility: inherit; font-family: &quot;Helvetica Neue&quot;, sans-serif; font-size: 12px; font-weight: 200;" x="69.65999984741211" y="0" dx="0em" dy="0.95em" fill="rgb(50, 49, 63)" stroke="none" stroke-width="1px">40k</text><text style="text-anchor: middle; visibility: hidden; font-family: &quot;Helvetica Neue&quot;, sans-serif; font-size: 12px; font-weight: 200;" x="92.87999979654947" y="0" dx="0em" dy="0.95em" fill="rgb(50, 49, 63)" stroke="none" stroke-width="1px">60k</text><text style="text-anchor: middle; visibility: inherit; font-family: &quot;Helvetica Neue&quot;, sans-serif; font-size: 12px; font-weight: 200;" x="116.09999974568686" y="0" dx="0em" dy="0.95em" fill="rgb(50, 49, 63)" stroke="none" stroke-width="1px">80k</text><text style="text-anchor: middle; visibility: hidden; font-family: &quot;Helvetica Neue&quot;, sans-serif; font-size: 12px; font-weight: 200;" x="139.31999969482422" y="0" dx="0em" dy="0.95em" fill="rgb(50, 49, 63)" stroke="none" stroke-width="1px">100k</text><text style="text-anchor: middle; visibility: inherit; font-family: &quot;Helvetica Neue&quot;, sans-serif; font-size: 12px; font-weight: 200;" x="162.5399996439616" y="0" dx="0em" dy="0.95em" fill="rgb(50, 49, 63)" stroke="none" stroke-width="1px">120k</text><text style="text-anchor: middle; visibility: hidden; font-family: &quot;Helvetica Neue&quot;, sans-serif; font-size: 12px; font-weight: 200;" x="185.75999959309894" y="0" dx="0em" dy="0.95em" fill="rgb(50, 49, 63)" stroke="none" stroke-width="1px">140k</text><text style="text-anchor: middle; visibility: inherit; font-family: &quot;Helvetica Neue&quot;, sans-serif; font-size: 12px; font-weight: 200;" x="208.97999954223633" y="0" dx="0em" dy="0.95em" fill="rgb(50, 49, 63)" stroke="none" stroke-width="1px">160k</text><text style="text-anchor: middle; visibility: hidden; font-family: &quot;Helvetica Neue&quot;, sans-serif; font-size: 12px; font-weight: 200;" x="232.19999949137372" y="0" dx="0em" dy="0.95em" fill="rgb(50, 49, 63)" stroke="none" stroke-width="1px">180k</text><text style="text-anchor: middle; visibility: inherit; font-family: &quot;Helvetica Neue&quot;, sans-serif; font-size: 12px; font-weight: 200;" x="255.41999944051105" y="0" dx="0em" dy="0.95em" fill="rgb(50, 49, 63)" stroke="none" stroke-width="1px">200k</text><text style="text-anchor: middle; visibility: hidden; font-family: &quot;Helvetica Neue&quot;, sans-serif; font-size: 12px; font-weight: 200;" x="278.63999938964844" y="0" dx="0em" dy="0.95em" fill="rgb(50, 49, 63)" stroke="none" stroke-width="1px">220k</text></g><line x1="0" y1="0" x2="278.63999938964844" y2="0" fill="rgb(0, 0, 0)" stroke="rgb(204, 204, 204)" stroke-width="1px"></line></g></g></g></g></svg>